<?xml version="1.0" encoding="UTF-8"?>
<svg width="752pt" height="752pt" version="1.1" viewBox="0 0 752 752" xmlns="http://www.w3.org/2000/svg">
 <path d="m534.65 268.97h-71.039v-23.207c0-50.672-39.781-91.402-88.086-91.402-48.305 0-88.086 40.727-88.086 91.402v23.207h-71.039c-6.1562 0-11.367 5.2109-11.367 11.367v283.68c0 18.941 15.156 34.098 34.098 34.098h272.31c18.941 0 34.098-15.156 34.098-34.098l0.003907-283.68c0.47266-6.6328-4.2617-11.367-10.891-11.367zm-218.32-23.68c0-34.57 26.52-62.984 59.672-62.984s59.672 28.414 59.672 62.984v23.207h-119.34z" fill="#fff"/>
</svg>
