<?xml version="1.0" standalone="no"?>
<!DOCTYPE svg PUBLIC "-//W3C//DTD SVG 20010904//EN"
 "http://www.w3.org/TR/2001/REC-SVG-20010904/DTD/svg10.dtd">
<svg version="1.0" xmlns="http://www.w3.org/2000/svg"
 width="1080.000000pt" height="758.000000pt" viewBox="0 0 1080.000000 758.000000"
 preserveAspectRatio="xMidYMid meet">

<g transform="translate(0.000000,758.000000) scale(0.100000,-0.100000)"
fill="#ffffff" stroke="none">
<path d="M1656 6643 c-9 -29 -4 -4839 5 -4854 5 -10 33 -13 96 -14 l88 0 3
2443 2 2442 -94 0 c-81 0 -95 -2 -100 -17z"/>
<path d="M2021 6646 c-8 -10 -10 -654 -9 -2437 l3 -2424 1365 -3 c1179 -2
1377 0 1453 13 48 8 102 15 121 15 34 0 86 9 201 35 33 8 71 16 85 18 38 7
170 46 210 61 19 7 60 21 90 31 30 10 92 35 138 57 45 21 85 38 88 38 11 0
186 102 264 154 184 121 407 331 537 505 89 117 185 284 256 441 46 104 119
339 133 430 4 25 10 50 14 55 4 6 10 44 13 86 6 74 6 77 -16 82 -28 7 -743 7
-779 0 -28 -5 -48 -42 -48 -92 0 -14 -9 -60 -21 -101 -11 -41 -24 -91 -29
-110 -17 -68 -53 -166 -93 -250 -147 -309 -370 -546 -660 -698 -149 -79 -246
-115 -417 -156 -247 -58 -271 -60 -1208 -64 -656 -2 -867 0 -878 9 -12 10 -14
271 -14 1873 0 1435 3 1865 12 1874 9 9 220 12 888 12 827 0 883 -1 1015 -20
154 -23 193 -30 275 -53 273 -77 519 -219 699 -406 64 -66 179 -213 189 -241
3 -8 11 -22 18 -30 12 -15 76 -138 107 -210 14 -32 37 -101 84 -253 12 -41 23
-59 38 -63 11 -2 196 -3 410 -2 l390 3 3 29 c5 37 -12 104 -74 296 -24 76
-128 300 -187 405 -152 268 -444 562 -732 737 -63 38 -252 134 -320 163 -74
30 -309 103 -405 124 -353 78 -405 81 -1906 81 -1075 0 -1293 -2 -1303 -14z"/>
<path d="M5840 6652 c0 -5 21 -20 48 -32 205 -95 447 -263 630 -437 l87 -83
285 0 c326 0 494 -17 670 -66 112 -32 126 -37 195 -69 278 -131 396 -386 341
-735 -31 -195 -121 -336 -284 -446 -93 -63 -271 -132 -387 -150 -16 -3 -68
-11 -115 -19 -191 -32 -353 -36 -1160 -33 l-805 3 -3 519 c-1 377 -5 523 -14
533 -14 17 -188 103 -209 103 -8 0 -19 4 -25 9 -11 12 -136 48 -229 67 -99 20
-307 45 -322 39 -11 -3 -13 -327 -11 -1637 l3 -1633 30 -4 c43 -4 268 35 395
70 116 31 254 89 338 143 l42 26 0 609 0 609 23 6 c43 12 1967 0 2052 -13 44
-6 114 -16 154 -22 360 -52 639 -209 741 -415 40 -82 49 -110 66 -214 16 -104
17 -159 3 -269 -20 -163 -59 -270 -138 -385 -29 -42 -145 -156 -159 -156 -5 0
-17 -8 -28 -18 -27 -26 -168 -95 -234 -115 -263 -82 -484 -106 -959 -107
l-273 0 -77 -73 c-110 -107 -261 -224 -376 -294 -95 -57 -259 -144 -297 -157
-10 -3 -18 -10 -18 -16 0 -13 1495 -13 1600 0 41 6 116 14 166 20 359 37 770
176 1030 348 356 236 542 538 574 931 20 250 -16 461 -108 631 -32 58 -56 93
-141 204 -56 73 -254 224 -386 296 -67 36 -284 130 -301 130 -16 0 -137 49
-148 60 -5 5 6 15 32 25 72 29 184 90 273 148 243 158 398 363 475 627 26 88
28 108 28 280 0 198 -5 228 -62 370 -143 356 -521 623 -1037 733 -141 31 -182
38 -265 49 -112 14 -1710 24 -1710 10z"/>
<path d="M1667 1613 c-4 -3 -7 -230 -7 -504 l0 -497 23 -6 c12 -3 1701 -6
3753 -6 2888 0 3733 3 3742 12 9 9 12 131 12 488 0 261 -3 485 -6 498 l-6 22
-3752 0 c-2064 0 -3756 -3 -3759 -7z m750 -154 c63 -25 79 -35 107 -64 15 -16
39 -53 53 -82 21 -46 24 -66 24 -180 1 -138 -4 -167 -33 -227 -24 -47 -60 -81
-113 -108 -34 -18 -65 -22 -201 -26 -112 -3 -167 -1 -182 7 -22 12 -22 13 -22
339 0 242 3 331 12 340 16 16 316 17 355 1z m661 -1 c17 -17 17 -659 0 -676
-16 -16 -100 -16 -116 0 -9 9 -12 97 -12 334 0 177 3 329 6 338 8 20 103 23
122 4z m764 0 c56 -17 115 -84 123 -142 9 -60 -4 -76 -61 -76 -40 0 -46 4 -70
39 -28 43 -37 47 -136 57 -78 8 -118 -9 -118 -51 0 -28 42 -65 74 -65 12 0 27
-5 33 -11 6 -6 33 -15 59 -20 96 -18 187 -75 218 -136 31 -62 16 -184 -28
-228 -51 -51 -155 -71 -293 -55 -134 15 -190 56 -208 153 -20 107 94 117 152
12 10 -18 22 -20 119 -20 104 0 109 1 120 24 20 39 -5 64 -95 94 -43 15 -86
27 -95 27 -23 0 -116 47 -144 74 -40 36 -54 75 -54 147 1 95 35 152 107 177
41 14 249 15 297 0z m958 -7 c14 -27 13 -84 -2 -104 -10 -13 -33 -17 -98 -19
l-85 -3 -3 -264 c-1 -175 -6 -269 -13 -278 -12 -14 -67 -17 -106 -7 l-23 6 0
258 c0 142 -3 265 -6 274 -5 13 -22 16 -85 16 -66 0 -82 3 -99 20 -22 22 -26
70 -10 101 10 18 24 19 265 19 241 0 255 -1 265 -19z m751 5 c81 -34 113 -91
114 -203 0 -91 -13 -120 -73 -158 -37 -23 -39 -37 -12 -74 25 -35 110 -211
110 -227 0 -17 -24 -24 -79 -24 -61 0 -78 16 -129 123 -49 102 -77 127 -143
127 -27 0 -51 -5 -56 -12 -4 -7 -8 -59 -8 -116 0 -80 -3 -105 -15 -112 -18
-12 -90 -13 -108 -1 -10 6 -13 78 -12 341 0 183 3 336 6 341 9 16 367 11 405
-5z m604 -10 c14 -22 16 -65 13 -341 -3 -351 0 -335 -74 -335 -78 0 -75 -14
-74 344 0 194 4 325 11 337 7 15 21 19 59 19 41 0 52 -4 65 -24z m792 13 c99
-37 146 -172 99 -278 -17 -37 -18 -43 -3 -59 8 -9 23 -41 33 -71 15 -47 16
-62 5 -115 -15 -72 -28 -95 -78 -133 l-36 -28 -197 -4 c-135 -2 -204 1 -219 8
-21 12 -21 16 -21 339 0 242 3 331 12 340 16 16 364 17 405 1z m971 -1 c7 -7
12 -33 12 -60 0 -37 -4 -50 -19 -58 -11 -5 -85 -10 -169 -10 -170 0 -174 -2
-166 -71 8 -73 0 -69 145 -69 153 0 169 -7 169 -71 0 -64 -13 -69 -170 -69
-106 0 -139 -3 -143 -13 -3 -8 -2 -38 1 -68 l7 -54 163 -5 c180 -6 182 -6 182
-72 0 -67 -5 -68 -252 -68 -192 0 -224 2 -240 17 -17 15 -18 39 -18 331 0 279
2 318 17 334 15 16 36 18 243 18 162 0 229 -3 238 -12z m777 -11 c101 -57 136
-209 71 -307 -15 -23 -40 -46 -57 -52 -29 -10 -38 -31 -19 -43 19 -12 121
-227 118 -248 -3 -19 -11 -22 -56 -25 -65 -4 -92 12 -116 65 -37 82 -62 125
-88 153 -23 25 -34 30 -75 30 -27 0 -54 -5 -61 -12 -8 -8 -12 -49 -12 -119 0
-118 0 -119 -68 -119 -70 0 -67 -16 -67 342 0 178 3 331 7 341 7 15 26 17 195
17 176 0 190 -2 228 -23z"/>
<path d="M2205 1318 c-3 -7 -4 -101 -3 -208 l3 -195 80 0 c68 1 86 4 113 24
47 33 62 78 62 185 -1 153 -37 196 -169 204 -63 4 -82 2 -86 -10z"/>
<path d="M5281 1316 c-7 -9 -11 -40 -9 -78 l3 -63 92 -3 c110 -3 148 11 158
59 8 37 -18 80 -56 90 -47 14 -176 10 -188 -5z"/>
<path d="M6682 1323 c-5 -10 -7 -42 -4 -71 l4 -53 106 3 c106 3 107 3 120 31
16 32 1 91 -24 101 -9 3 -56 6 -104 6 -75 0 -91 -3 -98 -17z"/>
<path d="M6678 1053 c-2 -5 -2 -38 0 -75 l4 -68 113 0 c106 0 115 1 129 22 19
27 20 67 4 103 -11 25 -12 25 -129 25 -65 0 -119 -3 -121 -7z"/>
<path d="M8409 1323 c-7 -45 -8 -65 -3 -105 l6 -48 90 0 c114 0 148 16 148 71
0 21 -8 47 -19 60 -17 22 -28 24 -120 27 -56 2 -102 0 -102 -5z"/>
</g>
</svg>
